<?xml version="1.0" standalone="no"?>
<!DOCTYPE svg PUBLIC "-//W3C//DTD SVG 20010904//EN"
 "http://www.w3.org/TR/2001/REC-SVG-20010904/DTD/svg10.dtd">
<svg version="1.0" xmlns="http://www.w3.org/2000/svg"
 width="1024.000000pt" height="1024.000000pt" viewBox="0 0 1024.000000 1024.000000"
 preserveAspectRatio="xMidYMid meet">

<g transform="translate(0.000000,1024.000000) scale(0.100000,-0.100000)"
fill="#000000" stroke="none">
<path d="M0 5120 l0 -5120 2546 0 2545 0 -6 53 c-11 100 -85 885 -135 1437
-27 305 -51 565 -53 578 -2 21 12 28 148 81 116 45 391 155 543 218 7 3 12 -4
12 -19 0 -28 79 -544 109 -713 29 -158 108 -525 115 -532 3 -4 6 90 6 208 0
369 35 1018 59 1107 9 31 31 33 110 10 33 -10 47 -21 57 -43 12 -27 92 -418
109 -535 10 -69 46 -244 51 -249 2 -2 4 22 4 54 0 100 41 608 56 692 8 44 20
51 110 69 86 16 395 57 398 52 1 -2 14 -66 29 -143 122 -614 287 -1295 432
-1785 20 -69 52 -179 71 -245 19 -66 45 -145 58 -175 13 -30 27 -70 31 -88 l7
-32 1414 0 1414 0 0 5120 0 5120 -5120 0 -5120 0 0 -5120z m9422 4499 c-51
-67 -323 -411 -332 -419 -3 -3 -28 -34 -55 -70 -46 -61 -173 -219 -185 -230
-3 -3 -28 -34 -55 -69 -28 -35 -82 -102 -120 -150 -143 -174 -265 -345 -265
-371 0 -7 9 -9 23 -5 17 5 19 4 7 -4 -8 -6 -13 -11 -10 -12 28 -5 49 -9 89
-18 25 -5 79 -13 120 -16 79 -7 101 -12 101 -26 0 -17 -200 -180 -330 -269
-36 -25 -69 -48 -75 -53 -22 -16 -193 -124 -237 -150 -27 -15 -48 -35 -48 -43
0 -8 -4 -13 -9 -9 -6 3 -23 -3 -40 -13 -23 -14 -28 -21 -19 -30 7 -7 10 -12 7
-12 -2 0 -19 -4 -37 -9 -24 -7 -31 -7 -26 2 4 7 1 7 -7 -1 -12 -11 -11 -15 5
-28 11 -8 25 -14 30 -13 6 0 5 3 -2 6 -10 4 -7 9 9 17 12 6 27 20 33 31 14 25
27 35 46 35 9 0 11 -3 5 -8 -15 -10 -35 -49 -35 -67 0 -8 8 -15 17 -15 14 0
15 -2 4 -12 -11 -10 -14 -10 -18 0 -5 12 -43 17 -43 5 0 -3 7 -15 17 -25 9
-10 13 -21 9 -25 -4 -4 -11 -1 -16 6 -6 10 -8 7 -9 -10 0 -13 -3 -41 -7 -61
-4 -27 -3 -38 6 -38 8 0 10 -10 6 -34 -5 -27 -2 -40 19 -64 l26 -31 -28 -15
-28 -15 33 -1 c17 0 32 -4 32 -10 0 -5 -8 -10 -17 -10 -16 0 -16 -1 0 -17 16
-16 19 -16 27 -3 5 8 10 11 11 5 4 -24 6 -42 8 -67 1 -19 5 -26 15 -22 23 9
27 -12 6 -31 -29 -27 -25 -45 10 -45 35 0 41 -19 8 -21 -21 -1 -21 -2 4 -12
22 -8 26 -15 22 -33 -4 -16 0 -25 14 -33 11 -6 22 -7 24 -2 2 5 9 2 17 -6 11
-12 11 -14 0 -12 -26 3 -39 -1 -39 -12 0 -7 11 -8 30 -4 31 7 39 -2 18 -23 -7
-7 -8 -12 -4 -12 5 0 3 -7 -4 -15 -11 -13 -8 -15 21 -15 28 -1 31 -2 17 -11
-23 -13 -23 -35 0 -60 12 -12 25 -17 36 -13 14 6 17 2 15 -17 -2 -14 6 -41 18
-61 19 -32 20 -39 7 -63 -19 -36 -9 -101 15 -101 10 0 18 7 17 15 -1 8 7 17
17 19 11 2 17 -3 17 -15 0 -11 6 -25 13 -32 10 -11 10 -14 0 -18 -7 -3 -13
-11 -13 -19 0 -8 -6 -14 -12 -15 -10 0 -10 -2 0 -6 15 -6 16 -83 1 -83 -8 0
-8 -4 0 -14 7 -8 9 -25 5 -40 -4 -16 -2 -26 4 -26 7 0 8 -11 1 -32 -12 -42
-11 -48 2 -48 11 0 39 -24 39 -34 0 -3 -12 -6 -27 -6 l-28 0 25 -20 c14 -11
21 -20 16 -20 -5 0 -3 -6 3 -14 10 -11 8 -17 -6 -25 -17 -11 -17 -12 1 -26 19
-15 19 -15 -5 -15 -19 0 -28 -8 -37 -34 -10 -26 -17 -33 -32 -29 -14 4 -19 0
-17 -16 1 -12 5 -21 10 -21 5 0 6 -7 3 -16 -7 -17 21 -70 31 -60 3 3 -2 12
-11 21 -27 27 -18 33 31 21 40 -9 44 -11 23 -16 -17 -4 -24 -12 -22 -24 2 -12
-1 -15 -8 -11 -9 5 -10 1 -5 -14 12 -37 -3 -23 -40 40 -19 33 -32 65 -29 71 4
6 2 8 -3 5 -12 -8 -26 20 -17 34 3 5 -1 9 -8 9 -18 0 -101 136 -92 151 4 7 3
9 -4 5 -13 -8 -64 63 -55 77 3 6 1 7 -4 4 -6 -4 -22 10 -35 31 -14 20 -50 67
-82 103 -31 36 -56 70 -56 74 0 4 -7 13 -15 19 -10 7 -20 53 -30 141 -16 131
-39 245 -75 365 -25 83 -51 108 -200 191 -138 76 -170 107 -303 299 -56 80
-148 207 -205 282 -61 82 -100 142 -96 149 4 7 3 9 -3 6 -6 -4 -44 40 -87 101
-43 59 -121 169 -174 244 -53 75 -135 185 -183 245 -133 169 -170 223 -163
235 4 6 3 8 -3 5 -11 -7 -93 103 -98 131 -1 9 -8 16 -16 14 -10 -3 -10 0 1 12
10 13 10 16 -3 16 -8 0 -17 -4 -19 -9 -1 -5 -12 -3 -23 6 -20 15 -20 15 2 10
13 -3 25 -2 28 3 6 10 54 10 61 -1 3 -5 -3 -6 -12 -2 -13 5 -15 3 -8 -8 5 -8
9 -17 9 -21 0 -3 4 -10 9 -15 5 -5 6 -3 2 5 -10 16 9 15 23 -2 12 -14 11 -57
-2 -67 -4 -3 -1 -12 8 -19 13 -11 14 -10 8 6 -6 17 -5 18 12 4 17 -14 18 -14
7 7 -15 27 -15 46 -2 38 6 -3 7 1 4 9 -3 9 -1 16 5 16 6 0 11 -4 11 -8 0 -4
10 -9 22 -9 13 -1 24 -6 26 -10 1 -4 7 -15 12 -23 9 -13 11 -13 21 0 8 12 9 8
5 -17 -4 -24 -2 -31 8 -27 7 3 20 -1 28 -9 21 -21 62 -33 56 -16 -4 10 4 14
26 15 17 1 25 -1 19 -3 -7 -3 -13 -11 -13 -19 0 -8 -4 -14 -10 -14 -16 0 -11
-27 6 -34 9 -4 19 -4 22 -1 3 3 0 5 -6 5 -22 0 -12 28 11 32 17 3 26 -2 34
-19 9 -18 8 -23 -4 -23 -8 0 -11 -4 -8 -10 3 -5 15 -10 26 -10 10 0 19 -4 19
-10 0 -5 11 -10 24 -10 13 0 26 -7 30 -15 3 -8 18 -16 33 -16 26 -2 25 -2 -7
-9 -23 -5 -27 -8 -12 -9 12 0 22 -8 22 -16 0 -9 10 -15 26 -15 19 0 25 4 20
15 -3 8 -1 15 4 15 14 0 12 -34 -2 -48 -7 -7 -8 -12 -2 -12 5 0 2 -5 -6 -10
-9 -6 -10 -10 -3 -10 6 0 18 7 27 15 19 20 23 19 53 -11 24 -24 26 -25 45 -7
19 17 19 17 17 -7 -4 -47 1 -60 21 -60 11 0 20 -5 20 -11 0 -6 9 -9 20 -6 17
4 20 0 20 -29 0 -31 3 -34 28 -34 16 0 34 -8 42 -20 10 -14 17 -17 27 -8 10 8
13 4 13 -21 0 -34 14 -41 25 -13 6 16 7 16 16 0 6 -10 19 -18 29 -18 11 0 20
-6 20 -14 0 -7 16 -21 36 -31 25 -12 33 -20 24 -25 -17 -10 -3 -31 15 -23 11
4 15 -2 15 -21 0 -15 6 -26 13 -26 9 0 13 10 12 28 -1 15 0 19 2 10 2 -10 8
-18 12 -18 5 0 22 -14 40 -30 28 -27 35 -29 32 -8 0 4 6 5 15 1 10 -4 12 -8 5
-12 -21 -13 39 -71 73 -72 31 -1 31 -1 -6 -11 -37 -10 -54 -38 -23 -38 8 0 15
-5 15 -11 0 -6 17 -9 43 -7 37 3 44 0 59 -24 10 -17 27 -28 39 -28 19 0 21 -4
15 -32 -4 -22 -3 -28 3 -19 8 12 12 12 25 2 22 -18 20 -31 -4 -31 -11 0 -20
-4 -20 -10 0 -5 16 -10 36 -10 27 0 41 7 56 26 12 15 26 23 35 20 12 -5 13 0
8 25 -7 29 -5 31 14 26 13 -3 25 1 32 11 7 12 12 14 15 5 11 -27 24 -12 18 21
-4 27 -1 37 14 45 13 7 22 7 30 -1 8 -8 12 -8 12 -1 0 5 -56 48 -125 94 -69
46 -125 89 -125 95 0 10 21 31 225 223 129 120 170 158 255 231 41 36 77 67
80 70 3 3 30 25 60 50 30 25 64 53 75 64 20 19 214 178 334 274 36 29 74 60
84 68 10 8 69 54 130 101 128 99 250 195 257 204 23 27 164 120 176 115 8 -3
14 -1 14 4 0 5 7 7 15 4 8 -4 15 -2 15 4 0 6 -6 12 -12 15 -7 2 -1 4 14 3 l26
-1 -26 -36z m-2593 -53 c9 -10 9 -20 0 -40 -21 -45 -89 -48 -89 -5 0 47 62 78
89 45z m-5689 -176 c3 -3 30 -25 60 -50 30 -25 57 -47 60 -50 3 -3 30 -25 60
-50 30 -25 67 -56 83 -70 15 -13 52 -42 81 -65 29 -22 131 -103 227 -180 96
-78 190 -152 209 -165 19 -13 37 -27 40 -30 18 -22 200 -154 205 -148 8 8 -34
170 -55 210 -13 24 -29 77 -36 118 -12 65 -12 76 1 89 9 9 15 11 15 4 0 -6 7
-13 14 -16 11 -4 13 -1 9 11 -17 54 354 -366 490 -552 5 -7 13 -4 24 9 13 16
15 17 10 3 -5 -15 0 -18 28 -18 28 0 35 -4 35 -20 0 -11 -5 -20 -11 -20 -5 0
-7 -5 -4 -10 10 -16 35 15 35 43 0 16 8 28 26 36 15 6 29 9 33 5 3 -4 0 -9 -6
-11 -7 -3 -13 -13 -13 -23 0 -10 -4 -21 -10 -25 -12 -8 -1 -35 15 -35 8 0 11
12 8 35 -3 31 0 37 24 46 l28 11 -25 10 c-24 9 -24 10 -6 23 20 15 106 17 106
3 0 -5 9 -3 20 4 11 7 20 21 20 31 0 11 9 30 20 44 11 14 20 31 20 38 0 7 11
13 25 13 13 0 22 -4 20 -9 -3 -4 3 -7 14 -6 11 0 17 6 13 12 -3 5 -7 26 -8 45
-1 29 2 36 18 36 17 0 17 -2 4 -12 -21 -15 -20 -33 2 -29 9 1 16 8 14 14 -1 6
4 10 10 9 7 -2 12 3 10 10 -1 8 2 11 8 7 5 -3 10 3 10 14 0 10 -6 22 -12 24
-8 3 -5 6 5 6 10 1 15 6 12 11 -10 16 1 11 16 -7 10 -11 10 -14 2 -9 -9 5 -13
0 -13 -16 1 -22 1 -22 15 -4 14 18 19 39 16 59 -1 5 3 5 9 2 6 -4 9 -14 5 -22
-4 -13 -3 -14 10 -3 8 7 12 17 8 23 -3 6 -1 7 6 3 13 -8 14 -7 -48 -83 -19
-23 -39 -39 -44 -36 -6 3 -7 1 -3 -5 4 -7 -38 -67 -102 -144 -60 -73 -139
-176 -177 -228 -235 -326 -307 -420 -356 -461 -28 -23 -55 -39 -64 -36 -8 4
-12 1 -10 -6 3 -7 -18 -25 -45 -42 -28 -16 -50 -33 -50 -38 0 -4 -4 -5 -10 -2
-5 3 -10 2 -10 -4 0 -5 -39 -40 -87 -78 -162 -126 -202 -153 -209 -141 -5 7
-2 8 7 3 11 -6 11 -5 2 5 -9 10 -16 9 -34 -4 -13 -9 -28 -16 -34 -16 -5 0 4 9
20 20 17 11 38 20 48 20 10 0 16 4 13 9 -3 5 8 14 24 21 17 7 30 16 30 21 0 5
6 9 14 9 8 0 18 4 21 10 4 7 -3 7 -20 0 -37 -14 -44 -12 -15 5 20 12 21 14 7
15 -24 0 -16 24 9 29 23 4 36 21 29 39 -2 6 2 13 10 13 8 1 21 2 28 3 6 0 16
11 22 24 5 12 13 22 18 22 5 0 5 9 2 20 -3 11 -2 20 4 20 5 0 13 -9 16 -21 7
-20 7 -20 26 3 17 19 22 20 29 8 6 -8 10 -10 10 -5 0 6 -5 17 -10 25 -8 12
-12 12 -18 2 -5 -7 -16 -10 -25 -6 -13 4 -14 9 -4 19 7 7 15 11 19 9 3 -2 14
3 23 12 15 15 14 18 -5 31 -11 8 -20 20 -20 26 0 9 3 8 8 -1 10 -15 45 -5 39
11 -2 6 -19 19 -38 30 -22 13 -26 17 -11 14 15 -3 22 0 22 9 0 8 -10 14 -22
14 -16 0 -19 3 -10 8 8 6 -12 33 -69 93 -94 97 -218 241 -339 395 -47 59 -90
112 -95 118 -17 18 -205 252 -293 365 -46 58 -98 124 -116 146 -19 22 -69 87
-112 145 -43 58 -81 107 -84 110 -10 8 -50 68 -50 74 0 3 5 6 10 6 6 0 10 -6
10 -13 0 -8 9 -22 19 -31 15 -14 21 -15 27 -4 4 7 4 10 -1 6 -4 -4 -18 7 -30
25 -12 18 -28 31 -36 29 -8 -2 -11 0 -6 4 4 4 -1 17 -10 28 -14 16 78 -54 97
-74z m6685 -7 c-6 -24 -39 -79 -238 -393 -72 -113 -300 -399 -351 -440 -18
-14 -18 -13 -11 20 4 19 11 40 15 45 4 6 19 30 32 55 22 38 129 221 158 270 5
8 33 56 62 105 42 72 81 118 191 228 76 75 141 137 144 137 3 0 2 -12 -2 -27z
m-2788 -69 c-3 -3 -12 -4 -19 -1 -8 3 -5 6 6 6 11 1 17 -2 13 -5z m-397 -34
c0 -5 -5 -10 -11 -10 -5 0 -7 5 -4 10 3 6 8 10 11 10 2 0 4 -4 4 -10z m-43
-16 c-3 -3 -12 -4 -19 -1 -8 3 -5 6 6 6 11 1 17 -2 13 -5z m630 0 c-3 -3 -12
-4 -19 -1 -8 3 -5 6 6 6 11 1 17 -2 13 -5z m78 -22 c-3 -3 -11 0 -18 7 -9 10
-8 11 6 5 10 -3 15 -9 12 -12z m-805 -2 c-8 -5 -19 -10 -25 -10 -5 0 -3 5 5
10 8 5 20 10 25 10 6 0 3 -5 -5 -10z m-181 -54 c-2 -2 -17 -6 -34 -9 l-30 -6
30 13 c26 12 47 13 34 2z m1176 4 l20 -9 -20 0 c-11 0 -27 4 -35 9 -13 9 -13
10 0 9 8 0 24 -4 35 -9z m62 -26 c-3 -3 -12 -4 -19 -1 -8 3 -5 6 6 6 11 1 17
-2 13 -5z m-1364 -11 c-7 -2 -19 -2 -25 0 -7 3 -2 5 12 5 14 0 19 -2 13 -5z
m1464 -30 c-3 -2 -16 1 -29 8 -12 7 -27 12 -31 11 -5 -1 -6 2 -2 8 4 6 17 4
36 -6 17 -8 29 -18 26 -21z m-1630 -9 c-2 -2 -14 -6 -26 -9 -11 -2 -26 -7 -31
-10 -6 -3 -10 -2 -10 4 0 9 17 15 54 18 10 1 16 0 13 -3z m1683 -4 c18 -12 2
-12 -25 0 -13 6 -15 9 -5 9 8 0 22 -4 30 -9z m44 -5 c-5 -11 1 -15 24 -15 17
0 34 -4 37 -10 8 -13 -1 -12 -47 1 -46 12 -50 24 -11 38 1 1 0 -6 -3 -14z
m937 4 c31 -16 43 -58 28 -101 -6 -20 -18 -39 -26 -42 -30 -12 -73 38 -73 83
0 17 35 71 46 71 3 0 14 -5 25 -11z m-2856 -49 c-3 -5 -14 -10 -23 -9 -14 0
-13 2 3 9 27 11 27 11 20 0z m2062 -16 c-7 -7 -37 7 -37 17 0 6 9 5 21 -1 11
-7 19 -14 16 -16z m-877 -25 c80 -17 178 -37 218 -45 40 -7 112 -25 160 -39
100 -30 610 -203 631 -215 8 -4 -1 -9 -26 -13 -22 -4 -48 -16 -58 -27 -10 -11
-23 -20 -29 -20 -24 0 -127 -121 -235 -276 -108 -156 -146 -203 -156 -192 -7
7 8 50 61 173 45 107 94 253 94 282 0 25 -243 129 -540 231 -96 33 -194 67
-217 77 -41 16 -42 16 -165 -20 -68 -20 -296 -95 -508 -165 -212 -70 -404
-131 -427 -135 -23 -4 -46 -12 -51 -18 -5 -7 -25 -79 -45 -162 -20 -82 -43
-179 -51 -215 -8 -36 -13 -50 -11 -32 3 18 1 31 -4 28 -5 -3 -3 13 5 37 7 23
18 64 24 91 10 46 9 51 -11 70 -18 18 -21 18 -16 4 4 -12 1 -18 -8 -18 -11 0
-13 14 -9 73 3 39 7 78 9 84 2 7 -6 15 -18 17 -110 22 -152 29 -165 29 -11 0
-10 4 4 15 54 40 223 101 544 196 124 37 268 80 320 95 52 16 147 41 210 56
63 14 142 33 175 40 33 8 76 16 95 18 19 2 40 5 45 5 6 1 75 -12 155 -29z
m965 10 c17 0 44 2 62 4 18 2 30 0 27 -5 -3 -5 -13 -6 -22 -4 -10 3 -23 2 -30
-3 -8 -5 11 -14 55 -25 82 -21 124 -38 78 -32 -37 5 -191 49 -225 65 l-25 12
25 -7 c14 -3 39 -5 55 -5z m-2265 -9 c-8 -5 -19 -10 -25 -10 -5 0 -3 5 5 10 8
5 20 10 25 10 6 0 3 -5 -5 -10z m2385 -10 c3 -5 -1 -10 -9 -10 -9 0 -16 5 -16
10 0 6 4 10 9 10 6 0 13 -4 16 -10z m-2455 -10 c-20 -13 -33 -13 -25 0 3 6 14
10 23 10 15 0 15 -2 2 -10z m-63 -16 c-3 -3 -12 -4 -19 -1 -8 3 -5 6 6 6 11 1
17 -2 13 -5z m-247 -79 c-7 -8 -20 -15 -29 -15 -11 0 -8 5 9 14 33 19 35 19
20 1z m-105 -77 c-4 -33 -4 -34 -15 -18 -5 9 -5 19 2 27 14 18 16 17 13 -9z
m-318 -304 c-9 -9 -28 6 -21 18 4 6 10 6 17 -1 6 -6 8 -13 4 -17z m4119 -29
c17 -13 16 -14 -16 -3 -43 14 -49 18 -24 18 11 0 29 -7 40 -15z m44 -65 c0 -5
-4 -10 -9 -10 -6 0 -13 5 -16 10 -3 6 1 10 9 10 9 0 16 -4 16 -10z m-3390 -27
c0 -1 -5 -14 -12 -28 -12 -27 -24 -32 -31 -12 -4 9 -8 8 -16 -3 -7 -9 -11 -10
-11 -3 0 6 5 15 11 18 6 4 8 13 5 21 -4 11 2 14 24 12 17 -1 30 -3 30 -5z
m-23 -95 c-3 -8 -6 -5 -6 6 -1 11 2 17 5 13 3 -3 4 -12 1 -19z m-20 -30 c-3
-8 -6 -5 -6 6 -1 11 2 17 5 13 3 -3 4 -12 1 -19z m-20 -50 c-3 -8 -6 -5 -6 6
-1 11 2 17 5 13 3 -3 4 -12 1 -19z m28 -58 c3 -5 1 -10 -4 -10 -6 0 -11 5 -11
10 0 6 2 10 4 10 3 0 8 -4 11 -10z m-50 -80 c3 -5 1 -10 -4 -10 -6 0 -11 5
-11 10 0 6 2 10 4 10 3 0 8 -4 11 -10z m55 -20 c0 -5 -5 -10 -11 -10 -5 0 -7
5 -4 10 3 6 8 10 11 10 2 0 4 -4 4 -10z m4226 -17 c-7 -7 -26 7 -26 19 0 6 6
6 15 -2 9 -7 13 -15 11 -17z m-236 -22 c0 -6 -4 -13 -10 -16 -5 -3 -10 1 -10
9 0 9 5 16 10 16 6 0 10 -4 10 -9z m230 -15 c0 -2 -7 -7 -16 -10 -8 -3 -12 -2
-9 4 6 10 25 14 25 6z m-4265 -76 c-3 -5 4 -11 15 -15 26 -8 54 -38 140 -151
69 -90 88 -135 70 -164 -7 -11 -10 -4 -10 25 0 45 -13 74 -24 56 -4 -6 -2 -11
3 -11 6 0 11 -5 11 -11 0 -6 -5 -7 -12 -2 -7 4 -21 9 -31 10 -15 3 -17 -1 -11
-19 3 -13 11 -29 17 -36 7 -9 6 -11 -7 -6 -9 3 -16 11 -16 18 0 6 -3 22 -7 35
-5 21 -3 23 15 19 24 -7 35 12 20 33 -8 11 -8 9 -4 -5 7 -19 6 -19 -13 -2 -18
17 -19 17 -24 -1 -4 -14 -5 -14 -6 5 0 12 -5 22 -10 22 -14 0 -20 -37 -8 -49
6 -6 7 -11 3 -11 -5 0 -3 -7 4 -15 17 -20 5 -19 -19 2 -12 10 -19 26 -17 42 2
14 1 18 -1 9 -4 -17 -23 -26 -23 -10 0 17 -70 54 -92 48 -13 -3 -17 -3 -10 0
6 3 11 15 11 27 -1 18 -2 19 -6 4 -4 -14 -8 -16 -19 -6 -11 9 -14 7 -14 -12
l0 -23 -16 22 c-8 12 -19 20 -24 17 -4 -3 -10 -1 -12 4 -1 4 -14 12 -26 16
-21 6 -23 5 -13 -13 15 -28 14 -35 -3 -20 -8 7 -11 17 -8 22 3 5 -3 6 -14 2
-10 -4 12 25 51 63 38 39 75 71 83 71 7 0 10 5 7 10 -3 6 1 10 9 10 8 0 17 -8
20 -17 3 -10 4 -6 2 10 -3 22 -1 25 10 16 8 -6 12 -15 9 -19z m4175 16 c0 -3
-4 -8 -10 -11 -5 -3 -10 -1 -10 4 0 6 5 11 10 11 6 0 10 -2 10 -4z m-3939 -53
c13 -16 12 -17 -3 -4 -10 7 -18 15 -18 17 0 8 8 3 21 -13z m5537 -175 c26 -26
7 -78 -27 -78 -9 0 -24 7 -35 15 -18 13 -18 15 4 44 23 33 39 38 58 19z
m-7370 -136 c9 -6 6 -12 -13 -22 -14 -7 -28 -10 -32 -7 -3 4 2 7 12 7 14 0 15
3 5 15 -10 12 -10 15 1 15 8 0 20 -4 27 -8z m-827 -81 c21 -16 22 -22 11 -45
-8 -19 -19 -26 -40 -26 -51 0 -67 35 -32 70 25 25 32 25 61 1z m1216 -63 c-28
-29 -55 -52 -59 -50 -5 2 -8 -4 -8 -12 0 -9 -6 -16 -12 -17 -9 0 -9 -2 -2 -5
16 -7 4 -56 -12 -50 -7 3 -16 1 -19 -4 -3 -4 1 -11 7 -13 7 -3 3 -6 -9 -6 -12
-1 -23 -5 -25 -9 -6 -15 -109 -73 -119 -67 -5 4 -9 -1 -9 -10 0 -9 -12 -18
-29 -21 -17 -4 -38 -15 -47 -25 -18 -20 -34 -25 -34 -10 0 5 10 11 22 14 12 4
19 9 16 12 -3 4 -21 -1 -40 -11 -18 -9 -27 -19 -21 -21 10 -3 10 -10 3 -24 -9
-16 -14 -17 -33 -7 -19 10 -20 9 -10 -3 6 -8 9 -19 5 -24 -16 -22 -74 -56 -87
-51 -8 3 -21 -2 -30 -10 -8 -8 -19 -12 -25 -9 -5 3 -10 1 -10 -4 0 -6 7 -11
15 -11 13 0 13 -2 3 -14 -7 -8 -15 -11 -18 -7 -12 15 -29 9 -25 -9 4 -23 -4
-30 -44 -35 -30 -3 -30 -3 -15 20 8 13 40 42 70 65 44 33 58 39 73 31 15 -8
20 -7 25 5 3 8 11 12 17 8 8 -4 9 -3 5 5 -6 9 -11 9 -22 1 -7 -7 -19 -10 -26
-8 -6 2 10 20 38 38 45 31 355 261 483 359 29 23 55 41 57 41 2 0 -20 -24 -49
-52z m-427 33 c0 -10 -75 -61 -90 -61 -5 0 -10 -4 -10 -8 0 -5 -21 -24 -47
-43 -69 -50 -72 -51 -69 -32 2 10 9 18 17 18 16 0 69 39 69 50 0 3 -10 4 -22
0 -21 -5 -21 -5 2 9 18 11 27 11 32 3 7 -11 12 -2 9 16 -1 5 3 6 9 2 15 -9 52
14 44 28 -4 7 -4 9 1 5 4 -4 14 -1 22 7 16 17 33 20 33 6z m6017 -68 c-3 -10
-5 -4 -5 12 0 17 2 24 5 18 2 -7 2 -21 0 -30z m1121 -29 c46 -32 -6 -80 -212
-198 -182 -104 -268 -136 -234 -87 69 98 262 250 365 287 49 17 54 17 81 -2z
m-7374 -77 c-2 -7 -14 -19 -27 -26 -21 -14 -21 -13 -7 5 14 17 31 33 37 34 1
0 0 -6 -3 -13z m-59 -47 c-3 -5 -11 -10 -16 -10 -6 0 -7 5 -4 10 3 6 11 10 16
10 6 0 7 -4 4 -10z m4170 -42 c39 -5 92 -21 119 -35 65 -33 160 -130 287 -293
122 -157 155 -205 209 -304 l40 -73 -97 -22 c-230 -53 -331 -84 -418 -129
-108 -56 -171 -115 -211 -199 -16 -34 -31 -62 -34 -62 -3 0 -34 59 -69 130
-140 282 -332 521 -514 639 l-67 42 38 43 c98 111 304 246 420 275 41 10 190
5 297 -12z m-4307 -63 c-3 -3 -9 2 -12 12 -6 14 -5 15 5 6 7 -7 10 -15 7 -18z
m5258 -10 c60 -8 154 -23 209 -35 55 -11 140 -27 188 -35 102 -16 179 -48 222
-92 19 -19 47 -74 78 -150 49 -126 54 -143 37 -143 -5 0 -9 3 -8 8 6 20 -24
73 -46 84 -48 21 -224 -8 -553 -91 -84 -21 -153 -34 -153 -30 0 5 -5 9 -11 9
-6 0 -8 -7 -5 -16 4 -12 1 -14 -13 -9 -18 5 -19 3 -9 -30 6 -19 17 -35 24 -35
23 0 25 18 4 33 -20 14 -20 15 -1 20 15 3 18 1 14 -11 -5 -11 -3 -13 7 -7 9 5
11 4 6 -3 -10 -16 14 -15 57 3 20 8 42 15 49 15 7 -1 -23 -15 -67 -33 l-80
-33 -43 81 c-23 44 -67 113 -97 154 -30 40 -52 78 -48 84 3 5 1 7 -5 3 -12 -7
-55 48 -44 58 4 4 2 6 -3 4 -9 -3 -46 35 -109 110 -11 13 -14 22 -7 22 6 0 19
-13 30 -30 10 -16 21 -27 24 -23 4 3 7 1 7 -5 0 -11 46 -62 55 -62 12 0 3 31
-9 36 -8 3 -12 13 -9 22 4 14 3 15 -6 2 -5 -8 -13 -11 -17 -8 -3 4 1 14 10 23
9 9 16 12 16 6 0 -6 6 -8 14 -5 20 7 42 -34 27 -49 -14 -14 -15 -50 -1 -42 6
3 10 1 10 -6 0 -7 3 -9 6 -6 4 4 1 13 -6 22 -10 12 -10 15 2 15 8 0 20 -6 27
-12 7 -7 0 12 -15 42 -16 30 -33 58 -37 61 -5 3 -8 10 -8 15 2 18 -11 44 -19
39 -4 -3 -13 2 -20 10 -9 10 -25 13 -54 10 -40 -4 -40 -4 9 9 67 19 237 19
371 1z m1307 -42 c-7 -2 -19 -2 -25 0 -7 3 -2 5 12 5 14 0 19 -2 13 -5z m51
-59 c3 -8 2 -12 -4 -9 -6 3 -10 10 -10 16 0 14 7 11 14 -7z m-6284 -24 c0 -5
-5 -10 -11 -10 -5 0 -7 5 -4 10 3 6 8 10 11 10 2 0 4 -4 4 -10z m776 -101
c-14 -11 -31 -17 -37 -13 -7 4 -1 12 17 20 43 19 50 16 20 -7z m-2086 -29 c3
-4 36 -26 74 -49 85 -51 150 -104 241 -195 54 -54 66 -71 52 -74 -9 -2 -15 -7
-12 -11 2 -5 -25 0 -61 10 -57 16 -143 68 -144 87 -1 4 -24 32 -51 62 -48 52
-126 149 -143 179 -7 10 -3 11 15 6 13 -4 26 -11 29 -15z m2094 11 c3 -5 -3
-11 -15 -14 -16 -4 -18 -3 -8 9 13 16 16 17 23 5z m5556 -1 c0 -5 -4 -10 -10
-10 -5 0 -10 5 -10 10 0 6 5 10 10 10 6 0 10 -4 10 -10z m-5670 -20 c0 -5 -5
-10 -11 -10 -5 0 -7 5 -4 10 3 6 8 10 11 10 2 0 4 -4 4 -10z m165 0 c3 -6 -1
-7 -9 -4 -18 7 -21 14 -7 14 6 0 13 -4 16 -10z m-65 -36 c0 -8 -4 -14 -8 -14
-4 0 -8 9 -8 19 0 11 4 17 8 15 4 -3 8 -12 8 -20z m-55 6 c3 -5 1 -10 -4 -10
-6 0 -11 5 -11 10 0 6 2 10 4 10 3 0 8 -4 11 -10z m130 -10 c-44 -11 -67 -11
-60 0 3 6 25 9 48 9 40 -1 40 -2 12 -9z m2300 -100 c61 -30 210 -154 261 -218
150 -190 305 -464 375 -662 33 -93 91 -333 82 -339 -5 -3 -30 -21 -57 -40 -59
-41 -183 -99 -299 -140 -113 -39 -277 -74 -292 -61 -7 6 -16 6 -20 2 -5 -4 -5
-2 -1 5 16 29 -81 229 -238 493 -46 78 -168 251 -173 247 -2 -3 1 -15 7 -27 9
-16 9 -25 1 -33 -15 -15 -14 -44 2 -54 7 -4 18 -19 24 -33 l12 -25 -2 25 c-1
14 -6 28 -11 32 -13 9 -18 46 -7 52 5 3 8 -2 7 -12 0 -9 4 -16 11 -15 8 2 10
-4 6 -14 -5 -12 -3 -14 8 -8 11 7 12 6 3 -6 -13 -16 -12 -47 1 -69 6 -8 17
-28 26 -44 8 -16 24 -31 34 -32 27 -4 41 -22 27 -36 -14 -14 14 -68 36 -68 7
0 10 -4 7 -10 -10 -16 6 -35 16 -19 6 10 8 6 7 -11 -2 -16 2 -24 10 -22 8 1
11 -2 7 -7 -3 -6 5 -29 17 -52 13 -22 30 -54 39 -70 9 -15 19 -25 23 -22 4 4
4 -1 1 -12 -7 -20 -6 -20 9 -1 9 11 16 15 16 9 0 -7 -5 -15 -10 -18 -6 -4 -8
-16 -5 -28 4 -12 -23 30 -60 93 -89 152 -301 474 -382 578 -55 72 -62 86 -51
100 11 15 11 15 -2 5 -12 -9 -33 7 -115 93 -55 57 -92 103 -83 102 9 -1 15 -5
12 -9 -2 -4 4 -10 15 -14 11 -3 22 -13 25 -21 3 -9 11 -12 17 -8 8 4 9 3 5 -4
-4 -7 -1 -12 7 -12 8 0 26 -9 40 -20 30 -24 34 -24 34 -5 0 8 -9 23 -20 32
-19 17 -20 17 -14 1 4 -12 2 -15 -8 -12 -8 3 -12 11 -9 18 5 13 -76 86 -95 86
-6 0 -11 5 -11 10 0 6 -11 15 -25 20 -23 9 -25 12 -14 32 7 13 55 66 108 119
83 83 106 100 173 127 137 57 169 63 318 57 104 -5 144 -10 175 -25z m4569 21
c11 -17 -44 -54 -244 -169 -244 -139 -469 -237 -492 -214 -26 26 339 228 677
373 49 21 52 21 59 10z m-2204 -31 c-14 -4 -68 -13 -120 -20 -83 -11 -282 -56
-332 -75 -10 -4 -18 -5 -18 -1 0 16 266 79 400 96 86 10 100 10 70 0z m85 -10
c7 -12 -2 -12 -30 0 -19 8 -19 9 2 9 12 1 25 -3 28 -9z m875 -41 c0 -7 7 -21
17 -31 15 -17 15 -18 -13 -14 -16 2 -23 1 -16 -1 6 -2 12 -8 12 -13 0 -12 -36
-31 -43 -24 -8 8 3 37 20 51 11 9 12 16 4 32 -16 29 -14 45 4 27 8 -8 15 -20
15 -27z m204 21 c55 -21 9 -93 -55 -86 -19 2 -34 8 -33 15 1 6 2 20 3 30 1 23
27 51 46 51 8 0 25 -4 39 -10z m-164 -21 c0 -5 -4 -9 -10 -9 -5 0 -10 7 -10
16 0 8 5 12 10 9 6 -3 10 -10 10 -16z m-7113 -201 c-3 -8 -6 -5 -6 6 -1 11 2
17 5 13 3 -3 4 -12 1 -19z m6171 -18 c63 -12 175 -82 260 -164 133 -127 323
-425 507 -796 154 -310 197 -432 193 -559 -1 -60 -2 -62 -5 -16 -2 28 -9 55
-15 60 -8 7 -9 4 -4 -9 5 -13 2 -17 -8 -13 -10 4 -25 -11 -46 -48 -55 -96
-136 -191 -354 -415 -78 -80 -191 -201 -251 -270 -259 -297 -306 -346 -460
-485 -173 -157 -325 -270 -440 -327 -178 -90 -519 -148 -690 -119 -83 14 -221
68 -308 119 -34 20 -92 66 -128 102 -84 85 -96 121 -78 241 7 46 15 73 17 60
2 -13 12 -33 23 -44 10 -12 19 -26 19 -31 0 -6 -5 -4 -10 4 -5 8 -10 10 -10 4
0 -6 6 -16 13 -23 11 -8 17 5 31 67 52 229 122 374 241 501 62 66 240 221 254
221 6 0 41 19 78 41 63 39 208 105 475 216 60 25 124 44 145 45 21 0 108 -22
193 -50 85 -27 200 -59 255 -71 111 -23 163 -27 70 -5 -65 15 -208 65 -202 70
1 2 39 -8 82 -22 94 -30 312 -64 405 -63 l65 0 -87 29 c-84 28 -208 85 -208
95 0 3 8 1 19 -4 15 -8 20 -6 29 14 10 22 8 26 -44 56 -31 17 -52 35 -47 39 4
4 73 17 152 29 149 23 202 37 185 49 -11 8 -12 22 -1 39 9 14 -8 24 -68 43
-37 12 -201 77 -217 86 -3 2 0 30 8 62 41 171 56 287 51 397 -5 101 -22 193
-33 182 -3 -2 -7 -15 -9 -27 -5 -28 -41 -63 -55 -55 -6 3 -10 0 -11 -7 0 -10
-2 -10 -6 0 -2 6 -9 9 -14 6 -6 -3 -5 -12 3 -22 12 -15 11 -16 -4 -3 -15 11
-26 8 -84 -29 -77 -48 -221 -120 -242 -120 -8 0 -12 -6 -9 -13 3 -8 -1 -14 -9
-14 -7 0 -11 4 -8 9 7 12 -21 10 -50 -3 -20 -9 -29 -9 -41 1 -8 7 -15 8 -15 3
0 -5 -38 -8 -85 -7 -51 2 -83 -1 -80 -7 4 -5 -1 -9 -10 -9 -9 0 -14 4 -11 9 3
4 -74 11 -172 14 -190 5 -234 14 -297 62 -20 16 -39 24 -47 19 -7 -4 -10 -3
-5 1 9 11 -103 126 -115 119 -5 -3 -7 0 -6 8 2 7 -4 12 -14 10 -20 -3 -33 14
-17 24 8 4 9 3 5 -4 -4 -7 -2 -12 3 -12 6 0 11 3 11 6 0 10 -22 48 -43 74
l-20 25 7 -29 c6 -26 5 -28 -8 -17 -8 7 -12 19 -9 27 3 8 0 14 -6 14 -6 0 -11
-6 -12 -12 0 -10 -2 -10 -5 -1 -3 7 -11 10 -18 7 -9 -3 -12 -26 -11 -75 0 -39
-2 -62 -6 -52 -4 10 -8 41 -8 69 -3 173 80 324 214 391 57 29 98 41 200 58
135 23 304 62 455 105 319 90 405 112 468 120 37 4 72 8 78 9 6 0 34 -3 62 -9z
m-6181 -22 c-3 -8 -6 -5 -6 6 -1 11 2 17 5 13 3 -3 4 -12 1 -19z m-751 -156
c18 -12 23 -62 7 -78 -19 -18 -38 -18 -57 2 -39 39 5 106 50 76z m3547 -33
c50 -26 154 -121 233 -214 47 -56 131 -164 325 -422 81 -106 156 -244 165
-303 6 -34 4 -37 -54 -78 -145 -101 -365 -172 -530 -171 -193 1 -285 73 -494
389 -92 139 -138 196 -138 172 0 -6 5 -14 10 -17 6 -4 8 -11 4 -16 -3 -6 -11
-3 -19 8 -12 16 -13 14 -8 -12 3 -23 2 -27 -6 -15 -9 13 -11 12 -12 -5 -1 -11
-3 -24 -4 -30 -2 -5 -4 -14 -5 -20 -1 -5 -2 -13 -1 -17 0 -5 -3 -8 -9 -8 -5 0
-10 8 -10 18 0 12 -10 6 -35 -23 -19 -22 -35 -35 -35 -30 0 6 -5 2 -11 -7 -5
-10 -14 -18 -19 -18 -9 0 -30 57 -33 89 -1 12 -5 21 -10 21 -5 0 -7 10 -4 22
4 12 1 29 -6 37 -9 12 -9 13 1 7 6 -4 12 -3 12 2 0 6 -7 12 -15 16 -8 3 -15
17 -15 30 0 20 4 24 18 19 14 -6 15 -4 4 9 -7 9 -9 19 -4 22 10 6 23 46 15 46
-7 0 -109 -219 -128 -275 -31 -92 -16 -532 26 -733 10 -52 22 -98 25 -103 3
-5 7 -47 9 -92 9 -196 273 -969 391 -1142 26 -38 114 -208 114 -219 0 -6 69
-106 80 -116 7 -7 29 -42 37 -60 4 -8 9 -17 13 -20 17 -14 82 -101 74 -99 -5
1 -16 1 -24 0 -13 -1 -13 -2 0 -11 8 -5 11 -10 6 -10 -5 0 -3 -7 4 -15 7 -8
17 -12 23 -8 6 4 7 1 2 -7 -5 -8 -3 -11 6 -8 8 3 13 11 11 17 -1 7 2 10 8 6 7
-4 8 -11 1 -19 -7 -8 5 -22 41 -49 69 -51 51 -47 -33 8 -128 83 -237 212 -394
468 -109 179 -178 331 -276 610 -150 424 -249 864 -265 1179 -8 152 10 412 36
511 20 79 82 211 133 287 47 68 194 217 263 266 68 49 231 129 303 150 64 18
149 11 204 -17z m-2846 -21 c-3 -7 -5 -2 -5 12 0 14 2 19 5 13 2 -7 2 -19 0
-25z m7153 -230 c0 -12 -58 -9 -65 2 -4 7 2 9 19 4 21 -5 26 -3 26 12 0 16 2
17 10 4 5 -8 10 -18 10 -22z m10 -28 c11 -7 5 -10 -22 -10 -21 0 -38 5 -38 10
0 13 40 13 60 0z m40 -84 c0 -5 -3 -6 -7 -3 -3 4 -12 -1 -19 -11 -13 -16 -13
-16 -14 1 0 9 5 17 10 17 6 0 10 8 10 18 0 14 2 15 10 2 5 -8 10 -19 10 -24z
m20 24 c0 -5 -4 -10 -10 -10 -5 0 -10 5 -10 10 0 6 5 10 10 10 6 0 10 -4 10
-10z m-67 -56 c2 -10 14 -41 26 -68 12 -27 20 -51 17 -53 -9 -9 -61 103 -58
125 4 27 10 25 15 -4z m-3623 6 c5 9 9 9 14 1 4 -6 2 -11 -4 -11 -6 0 -8 -5
-4 -12 5 -9 2 -9 -9 1 -9 7 -17 19 -16 25 0 6 3 5 6 -3 4 -10 7 -10 13 -1z
m3680 -50 c0 -5 -7 -10 -16 -10 -8 0 -12 5 -9 10 3 6 10 10 16 10 5 0 9 -4 9
-10z m33 -80 c-3 -12 -8 -19 -11 -16 -5 6 5 36 12 36 2 0 2 -9 -1 -20z m-3611
-32 c-7 -7 -12 -8 -12 -2 0 14 12 26 19 19 2 -3 -1 -11 -7 -17z m3603 -18 c-3
-4 2 -13 10 -20 8 -7 15 -18 15 -24 0 -7 9 -29 20 -51 11 -21 18 -41 15 -43
-4 -4 -85 152 -85 164 0 4 7 1 15 -6 8 -7 13 -16 10 -20z m-2431 -46 c3 -8 2
-12 -4 -9 -6 3 -10 10 -10 16 0 14 7 11 14 -7z m27 -51 c13 -16 12 -17 -3 -4
-10 7 -18 15 -18 17 0 8 8 3 21 -13z m-294 -210 c-2 -16 -4 -3 -4 27 0 30 2
43 4 28 2 -16 2 -40 0 -55z m-750 1 c-3 -4 0 -18 7 -33 7 -14 16 -37 20 -51 3
-14 -4 -2 -17 25 -22 46 -25 65 -10 65 4 0 4 -3 0 -6z m3601 -19 c-3 -3 -9 2
-12 12 -6 14 -5 15 5 6 7 -7 10 -15 7 -18z m21 -45 c11 -24 11 -24 -3 -6 -9
11 -16 24 -16 30 0 12 5 7 19 -24z m-1642 -16 c-3 -3 -12 -4 -19 -1 -8 3 -5 6
6 6 11 1 17 -2 13 -5z m-359 -21 c-10 -2 -26 -2 -35 0 -10 3 -2 5 17 5 19 0
27 -2 18 -5z m2970 -20 c6 -43 -77 -72 -97 -35 -7 14 -6 25 5 41 22 31 87 27
92 -6z m-1203 -423 c-9 -41 -17 -33 -9 9 4 17 9 30 11 27 3 -2 2 -19 -2 -36z
m-1306 -7 c2 -2 0 -3 -6 -3 -6 0 -21 9 -34 21 l-24 20 30 -17 c17 -10 32 -19
34 -21z m101 -43 c8 -5 11 -10 5 -10 -5 0 -17 5 -25 10 -8 5 -10 10 -5 10 6 0
17 -5 25 -10z m1973 -5 c13 -9 17 -20 12 -34 -3 -12 -9 -21 -13 -22 -4 0 -16
-2 -26 -4 -22 -4 -45 20 -46 47 0 28 43 36 73 13z m-815 -45 c-7 -10 -14 -17
-17 -15 -4 4 18 35 25 35 2 0 -1 -9 -8 -20z m-26 -52 c-7 -7 -12 -8 -12 -2 0
14 12 26 19 19 2 -3 -1 -11 -7 -17z m-39 -73 c-9 -19 -20 -35 -25 -35 -4 0 2
16 13 35 12 19 23 35 25 35 2 0 -4 -16 -13 -35z m-118 -194 c-48 -77 -89 -141
-92 -141 -3 0 1 10 9 23 8 12 48 77 88 145 40 67 75 121 77 118 2 -2 -35 -67
-82 -145z m-126 -206 c-12 -19 -23 -35 -25 -35 -6 0 14 40 29 58 18 23 16 12
-4 -23z m-4081 -72 c285 -109 385 -121 662 -79 96 15 232 38 303 52 173 33
231 32 288 -4 91 -59 194 -191 242 -313 47 -119 59 -179 64 -321 5 -121 3
-145 -17 -210 -12 -41 -42 -102 -68 -142 -26 -38 -55 -84 -65 -100 -40 -66
-61 -76 -162 -76 -121 0 -314 33 -442 75 -287 96 -522 276 -692 532 -82 122
-241 431 -265 512 -18 63 -21 131 -5 131 6 0 77 -25 157 -57z m4040 7 c-7 -10
-14 -17 -17 -15 -4 4 18 35 25 35 2 0 -1 -9 -8 -20z m-42 -67 c-9 -16 -25 -39
-36 -53 -23 -26 -19 -18 19 43 27 43 39 50 17 10z m-7012 -166 c22 -21 20 -43
-6 -67 -42 -39 -128 -17 -128 33 0 38 31 60 77 54 23 -2 49 -11 57 -20z m4593
-79 c-3 -7 -5 -2 -5 12 0 14 2 19 5 13 2 -7 2 -19 0 -25z m2573 -82 c0 -2 -8
-10 -17 -17 -16 -13 -17 -12 -4 4 13 16 21 21 21 13z m-2546 -41 c5 -22 4 -26
-4 -15 -5 8 -10 24 -10 34 0 26 6 18 14 -19z m3051 -119 c28 -7 79 -25 115
-38 36 -14 97 -35 135 -48 108 -34 254 -94 320 -130 33 -18 73 -40 89 -48 l29
-15 -23 -19 c-13 -10 -30 -16 -37 -14 -8 3 -11 1 -8 -5 4 -5 14 -9 23 -8 10 1
28 -3 42 -9 24 -10 24 -11 3 -11 -13 -1 -23 5 -24 12 0 8 -2 9 -5 0 -7 -15
-206 52 -349 117 -23 10 -64 28 -92 39 -84 33 -200 97 -271 150 -24 18 -30 26
-20 32 17 11 14 11 73 -5z m-2785 -486 c6 -11 8 -20 6 -20 -3 0 -10 9 -16 20
-6 11 -8 20 -6 20 3 0 10 -9 16 -20z m31 -47 c13 -16 12 -17 -3 -4 -10 7 -18
15 -18 17 0 8 8 3 21 -13z m2740 -60 c21 -55 -31 -101 -73 -65 -23 19 -23 28
3 63 26 37 56 38 70 2z m-6636 -193 c-4 -6 1 -7 11 -3 28 10 9 -31 -93 -202
-20 -33 -61 -105 -91 -160 -30 -55 -68 -119 -84 -143 -21 -30 -25 -43 -16 -46
7 -3 85 -9 173 -16 180 -13 292 -28 300 -40 4 -7 -83 -120 -115 -150 -13 -12
-121 -133 -185 -205 -203 -232 -948 -971 -929 -922 3 8 12 18 20 21 10 4 12
14 8 29 -4 19 1 29 22 46 15 11 22 21 17 21 -6 0 -16 -7 -23 -15 -11 -13 -15
-13 -21 -3 -7 10 -9 9 -9 -4 0 -10 -5 -18 -10 -18 -6 0 -8 -11 -4 -28 6 -22 5
-25 -7 -16 -25 19 -59 14 -75 -11 -9 -13 -13 -29 -9 -34 3 -7 0 -8 -9 -5 -13
5 -10 14 16 50 17 24 35 41 40 38 5 -3 8 0 7 7 -5 24 51 98 69 92 13 -4 14 -3
4 5 -11 7 27 67 163 258 97 137 185 260 195 274 38 49 200 303 196 307 -8 8
-315 -17 -419 -33 -71 -12 -110 -15 -117 -8 -10 10 303 329 475 485 39 35 122
114 185 175 144 139 188 178 251 226 49 37 77 49 64 28z m5950 -90 c-3 -5 0
-7 8 -5 7 3 84 -42 171 -100 87 -58 199 -131 249 -162 51 -31 130 -84 177
-118 47 -34 153 -109 236 -169 83 -59 162 -119 175 -134 22 -24 22 -25 2 -8
-13 10 -29 16 -39 12 -11 -4 -18 0 -21 14 -7 25 -25 27 -21 3 1 -10 -1 -24 -6
-32 -7 -10 -3 -12 15 -6 22 7 22 7 6 -9 -9 -10 -21 -15 -26 -12 -18 11 -42 -6
-36 -25 5 -14 -1 -19 -30 -25 -19 -3 -38 -10 -41 -15 -3 -5 -19 -2 -35 6 -16
9 -34 13 -40 10 -5 -4 -16 -1 -24 5 -19 16 -20 3 -1 -15 7 -8 17 -11 21 -7 5
4 5 1 1 -6 -5 -7 2 -21 16 -33 19 -16 19 -18 3 -10 -23 11 -347 347 -546 566
-29 33 -56 62 -59 65 -34 32 -180 202 -180 210 0 5 7 10 16 10 8 0 12 -4 9
-10z m-3687 -1215 c1 -462 -1 -835 -3 -830 -2 6 -5 393 -8 860 -2 468 -1 841
3 830 4 -11 8 -398 8 -860z m3613 655 c12 0 23 -10 30 -27 21 -56 -73 -100
-116 -53 -32 36 7 99 53 84 8 -2 22 -4 33 -4z m-4728 -195 c-72 -113 -336
-496 -369 -536 -35 -43 -173 -195 -263 -291 -25 -26 -49 -44 -54 -41 -6 3 -7
1 -3 -5 3 -6 -3 -16 -14 -22 -13 -7 -20 -7 -20 0 0 5 5 10 12 10 6 0 9 3 5 6
-3 3 6 27 20 52 26 49 33 60 129 207 32 50 64 99 70 110 92 166 203 313 300
400 43 39 108 97 144 130 51 47 65 56 68 42 2 -9 -9 -37 -25 -62z m5680 -55
c-6 -21 -24 -23 -30 -3 -2 6 4 13 14 16 10 3 19 5 20 6 0 0 -1 -8 -4 -19z
m-524 -506 c11 7 85 -37 122 -74 22 -22 81 -95 113 -140 9 -13 8 -13 -5 -3 -9
7 -20 9 -24 5 -5 -4 -5 -2 -1 5 6 12 -3 26 -51 79 -23 25 -40 33 -27 12 5 -7
2 -9 -9 -5 -12 4 -14 2 -10 -10 5 -12 3 -14 -6 -8 -12 7 -30 -9 -31 -28 0 -10
43 15 53 31 5 7 12 10 18 7 15 -10 11 -25 -7 -25 -9 0 -14 -6 -12 -12 3 -7 -2
-19 -9 -27 -12 -12 -9 -19 19 -48 18 -19 26 -31 18 -28 -8 3 -46 45 -85 92
-38 47 -76 92 -84 100 -11 12 -11 17 4 33 21 23 40 26 32 5 -4 -8 -2 -17 2
-20 16 -9 19 20 5 39 -10 15 -16 16 -28 7 -11 -9 -15 -8 -20 6 -6 14 -9 15
-16 3 -6 -9 -3 -18 7 -25 10 -7 12 -14 6 -18 -5 -3 -20 7 -32 23 -15 20 -17
28 -6 24 9 -4 18 1 22 11 6 17 7 17 19 0 7 -9 17 -14 23 -11z m-1082 -166 c-3
-8 -6 -5 -6 6 -1 11 2 17 5 13 3 -3 4 -12 1 -19z m1253 -8 c0 -5 -2 -10 -4
-10 -3 0 -8 5 -11 10 -3 6 -1 10 4 10 6 0 11 -4 11 -10z m-20 -36 c0 -22 -2
-25 -15 -14 -12 10 -13 16 -4 26 16 20 19 18 19 -12z m-1223 -26 c-3 -8 -6 -5
-6 6 -1 11 2 17 5 13 3 -3 4 -12 1 -19z m10 -50 c-3 -8 -6 -5 -6 6 -1 11 2 17
5 13 3 -3 4 -12 1 -19z m20 -130 c-3 -7 -5 -2 -5 12 0 14 2 19 5 13 2 -7 2
-19 0 -25z m10 -60 c-3 -8 -6 -5 -6 6 -1 11 2 17 5 13 3 -3 4 -12 1 -19z
m-6317 -31 c0 -2 -12 -14 -27 -28 l-28 -24 24 28 c23 25 31 32 31 24z m6327
-29 c-3 -7 -5 -2 -5 12 0 14 2 19 5 13 2 -7 2 -19 0 -25z m10 -60 c-3 -8 -6
-5 -6 6 -1 11 2 17 5 13 3 -3 4 -12 1 -19z m10 -60 c-3 -7 -5 -2 -5 12 0 14 2
19 5 13 2 -7 2 -19 0 -25z m10 -50 c-3 -8 -6 -5 -6 6 -1 11 2 17 5 13 3 -3 4
-12 1 -19z m10 -60 c-3 -7 -5 -2 -5 12 0 14 2 19 5 13 2 -7 2 -19 0 -25z
m-3060 -70 c-2 -18 -4 -6 -4 27 0 33 2 48 4 33 2 -15 2 -42 0 -60z m3070 30
c-3 -8 -6 -5 -6 6 -1 11 2 17 5 13 3 -3 4 -12 1 -19z m10 -70 c-3 -8 -6 -5 -6
6 -1 11 2 17 5 13 3 -3 4 -12 1 -19z m-3080 -30 c-3 -7 -5 -2 -5 12 0 14 2 19
5 13 2 -7 2 -19 0 -25z m0 -50 c-3 -7 -5 -2 -5 12 0 14 2 19 5 13 2 -7 2 -19
0 -25z m3110 -100 c-3 -8 -6 -5 -6 6 -1 11 2 17 5 13 3 -3 4 -12 1 -19z m31
-133 c0 -16 -2 -15 -8 5 -4 14 -8 36 -8 50 0 22 1 22 8 -5 4 -16 8 -39 8 -50z"/>
<path d="M6386 8861 c-4 -5 -2 -20 3 -33 9 -21 9 -20 8 9 -2 36 -3 38 -11 24z"/>
<path d="M6432 8820 c0 -14 2 -19 5 -12 2 6 2 18 0 25 -3 6 -5 1 -5 -13z"/>
<path d="M6400 8790 c0 -5 5 -10 10 -10 6 0 10 5 10 10 0 6 -4 10 -10 10 -5 0
-10 -4 -10 -10z"/>
<path d="M6460 8765 c-7 -9 -10 -19 -6 -22 4 -4 10 -3 14 2 10 14 45 16 54 2
4 -6 10 -8 14 -5 10 11 -22 38 -44 38 -11 0 -25 -7 -32 -15z"/>
<path d="M6444 8705 c3 -21 16 -31 16 -12 0 9 -4 18 -9 21 -5 4 -8 -1 -7 -9z"/>
<path d="M6540 8713 c0 -5 5 -15 10 -23 8 -12 10 -11 10 8 0 12 -4 22 -10 22
-5 0 -10 -3 -10 -7z"/>
<path d="M6494 8619 c-8 -14 14 -19 25 -6 8 10 7 14 -5 14 -8 0 -17 -4 -20 -8z"/>
<path d="M6840 8530 c0 -5 5 -10 10 -10 6 0 10 5 10 10 0 6 -4 10 -10 10 -5 0
-10 -4 -10 -10z"/>
<path d="M7208 8268 c8 -8 17 -8 34 0 22 10 21 11 -11 11 -27 1 -32 -2 -23
-11z"/>
<path d="M7390 8154 c0 -13 18 -39 24 -34 2 3 -2 14 -10 24 -8 11 -14 16 -14
10z"/>
<path d="M7912 8000 c7 -10 14 -18 15 -16 6 6 -9 36 -18 36 -5 0 -4 -9 3 -20z"/>
<path d="M7581 7991 c-10 -6 -10 -10 -1 -16 13 -8 24 -1 19 14 -3 6 -10 7 -18
2z"/>
<path d="M7615 7936 c10 -7 27 -11 37 -8 27 7 11 22 -25 22 -28 0 -29 -1 -12
-14z"/>
<path d="M7830 7934 c0 -8 4 -14 10 -14 5 0 7 -8 3 -17 -6 -16 -4 -16 15 1 28
25 28 33 -3 38 -17 4 -25 1 -25 -8z"/>
<path d="M7898 7886 c-5 -21 -98 -97 -110 -90 -6 4 -8 2 -4 -4 3 -6 -19 -32
-49 -58 -31 -26 -53 -49 -50 -53 3 -3 9 -1 13 4 4 6 36 35 72 65 36 30 83 71
105 92 22 21 43 38 48 38 4 0 7 5 7 10 0 15 -28 12 -32 -4z"/>
<path d="M7790 7870 c0 -5 7 -10 15 -10 8 0 15 5 15 10 0 6 -7 10 -15 10 -8 0
-15 -4 -15 -10z"/>
<path d="M7790 7820 c0 -5 5 -10 10 -10 6 0 10 5 10 10 0 6 -4 10 -10 10 -5 0
-10 -4 -10 -10z"/>
<path d="M7945 7660 c-3 -5 -1 -10 4 -10 6 0 11 5 11 10 0 6 -2 10 -4 10 -3 0
-8 -4 -11 -10z"/>
<path d="M8205 6781 c-3 -5 -1 -12 5 -16 5 -3 10 1 10 9 0 18 -6 21 -15 7z"/>
<path d="M8236 6737 c3 -10 9 -15 12 -12 3 3 0 11 -7 18 -10 9 -11 8 -5 -6z"/>
<path d="M8330 6530 c0 -5 7 -10 15 -10 8 0 15 5 15 10 0 6 -7 10 -15 10 -8 0
-15 -4 -15 -10z"/>
<path d="M8312 6380 c0 -14 2 -19 5 -12 2 6 2 18 0 25 -3 6 -5 1 -5 -13z"/>
<path d="M8140 6305 c-10 -12 -10 -18 -2 -26 7 -5 10 -6 7 -3 -2 4 0 15 6 25
12 23 6 25 -11 4z"/>
<path d="M8126 6252 c-2 -4 2 -16 10 -27 8 -10 14 -14 14 -8 0 7 -5 15 -10 18
-6 4 -8 11 -5 16 4 5 4 9 1 9 -3 0 -7 -3 -10 -8z"/>
<path d="M8291 6224 c-7 -8 -10 -18 -6 -22 3 -3 9 -2 13 4 4 6 16 16 27 22
l20 11 -20 0 c-11 0 -26 -7 -34 -15z"/>
<path d="M8311 6184 c0 -11 3 -14 6 -6 3 7 2 16 -1 19 -3 4 -6 -2 -5 -13z"/>
<path d="M8277 6153 c-13 -12 -7 -33 8 -33 8 0 15 9 15 20 0 20 -11 26 -23 13z"/>
<path d="M8201 6134 c0 -11 3 -14 6 -6 3 7 2 16 -1 19 -3 4 -6 -2 -5 -13z"/>
<path d="M8232 6100 c-12 -19 -11 -20 8 -8 20 13 27 28 12 28 -4 0 -13 -9 -20
-20z"/>
<path d="M8308 6065 c-5 -25 -4 -25 10 -11 12 11 13 19 5 27 -7 7 -12 3 -15
-16z"/>
<path d="M8276 6057 c3 -10 9 -15 12 -12 3 3 0 11 -7 18 -10 9 -11 8 -5 -6z"/>
<path d="M3057 8657 c-3 -8 1 -14 9 -14 16 0 19 13 5 21 -5 3 -11 0 -14 -7z"/>
<path d="M2990 8580 c0 -5 5 -10 11 -10 5 0 7 5 4 10 -3 6 -8 10 -11 10 -2 0
-4 -4 -4 -10z"/>
<path d="M2966 8552 c-2 -4 -1 -14 3 -21 6 -9 11 -10 15 -2 4 6 2 11 -4 11 -6
0 -8 5 -5 10 3 6 4 10 1 10 -3 0 -7 -4 -10 -8z"/>
<path d="M2945 8510 c-3 -5 -1 -10 4 -10 6 0 11 5 11 10 0 6 -2 10 -4 10 -3 0
-8 -4 -11 -10z"/>
<path d="M2850 8470 c0 -5 7 -10 15 -10 8 0 15 5 15 10 0 6 -7 10 -15 10 -8 0
-15 -4 -15 -10z"/>
<path d="M2316 8412 c-24 -40 -63 -396 -44 -408 3 -2 9 4 11 13 4 15 5 16 6 2
1 -13 13 -18 47 -21 25 -2 51 0 57 4 14 9 5 11 -47 8 -54 -2 -43 24 12 28 34
3 42 7 42 23 0 10 5 19 10 19 6 0 10 7 10 15 0 17 16 20 25 5 8 -13 35 -13 35
0 0 6 -10 15 -22 20 -22 8 -22 9 -2 9 26 1 44 19 44 46 1 18 1 19 11 2 5 -9 8
-21 5 -26 -4 -5 -3 -17 1 -28 6 -14 9 -11 14 17 6 28 3 39 -13 58 -18 18 -19
22 -5 22 8 0 19 -9 22 -20 8 -24 21 -26 29 -4 8 21 8 24 -5 24 -13 0 -39 25
-39 38 0 11 -30 26 -43 23 -5 -1 -6 3 -3 8 3 5 -17 28 -45 52 -27 24 -56 50
-64 56 -7 7 -21 10 -31 6 -12 -4 -15 -3 -10 5 4 7 5 12 2 12 -3 0 -7 -4 -10
-8z m144 -152 c0 -5 -5 -10 -11 -10 -5 0 -7 5 -4 10 3 6 8 10 11 10 2 0 4 -4
4 -10z m-173 -172 c-3 -8 -6 -5 -6 6 -1 11 2 17 5 13 3 -3 4 -12 1 -19z"/>
<path d="M2652 8381 c7 -11 19 -23 27 -26 11 -5 11 -2 -1 17 -20 30 -45 39
-26 9z"/>
<path d="M2834 8388 c-4 -7 -4 -10 1 -6 4 4 15 2 24 -5 14 -11 14 -10 2 6 -16
20 -18 21 -27 5z"/>
<path d="M2420 8070 c0 -5 7 -10 15 -10 8 0 15 5 15 10 0 6 -7 10 -15 10 -8 0
-15 -4 -15 -10z"/>
<path d="M2297 7967 c-3 -8 -1 -20 4 -28 6 -10 9 -7 9 14 0 29 -5 35 -13 14z"/>
<path d="M2460 7970 c0 -5 5 -10 10 -10 6 0 10 5 10 10 0 6 -4 10 -10 10 -5 0
-10 -4 -10 -10z"/>
<path d="M2267 7954 c-4 -4 -7 -14 -7 -23 0 -11 3 -12 11 -4 6 6 10 16 7 23
-2 6 -7 8 -11 4z"/>
<path d="M2280 7830 c0 -5 5 -10 10 -10 6 0 10 5 10 10 0 6 -4 10 -10 10 -5 0
-10 -4 -10 -10z"/>
<path d="M2357 7815 c3 -8 9 -12 14 -9 12 7 11 11 -5 17 -10 4 -13 1 -9 -8z"/>
<path d="M3726 8575 c4 -8 8 -15 10 -15 2 0 4 7 4 15 0 8 -4 15 -10 15 -5 0
-7 -7 -4 -15z"/>
<path d="M3693 8525 c-3 -9 -3 -18 -1 -21 3 -3 8 4 11 16 6 23 -1 27 -10 5z"/>
<path d="M3716 8525 c-9 -26 -7 -32 5 -12 6 10 9 21 6 23 -2 3 -7 -2 -11 -11z"/>
<path d="M3681 8476 c-17 -9 -20 -15 -10 -18 8 -3 20 2 28 9 19 20 10 24 -18
9z"/>
<path d="M3650 8380 c0 -5 5 -10 10 -10 6 0 10 5 10 10 0 6 -4 10 -10 10 -5 0
-10 -4 -10 -10z"/>
<path d="M3616 7907 c3 -10 9 -15 12 -12 3 3 0 11 -7 18 -10 9 -11 8 -5 -6z"/>
<path d="M3602 7871 c-7 -4 1 -12 18 -18 35 -13 36 -13 11 9 -10 8 -23 13 -29
9z"/>
<path d="M3696 7783 c-6 -14 -5 -15 5 -6 7 7 10 15 7 18 -3 3 -9 -2 -12 -12z"/>
<path d="M2115 7219 c-4 -6 -17 -14 -29 -19 -20 -8 -20 -9 -1 -9 23 -1 39 9
43 27 3 15 -4 16 -13 1z"/>
<path d="M1985 7131 c-3 -5 -1 -12 5 -16 5 -3 10 1 10 9 0 18 -6 21 -15 7z"/>
<path d="M1940 7090 c-8 -5 -11 -12 -7 -16 4 -4 15 0 24 9 18 18 8 23 -17 7z"/>
<path d="M5158 6963 c-14 -16 -23 -34 -20 -42 3 -9 0 -11 -8 -6 -8 5 -11 4 -6
-3 4 -6 14 -8 23 -5 10 4 14 2 10 -4 -4 -6 13 -21 37 -34 25 -13 42 -28 39
-33 -4 -5 1 -7 10 -3 9 3 16 2 14 -2 -1 -5 20 -28 48 -52 27 -24 46 -38 41
-31 -4 6 -2 12 3 12 6 0 11 -8 11 -17 1 -25 45 -77 59 -69 6 4 9 2 6 -6 -3 -8
11 -31 31 -53 20 -22 42 -51 50 -65 24 -43 86 -125 91 -122 2 2 8 0 11 -4 4
-4 1 -4 -5 0 -19 11 -16 2 20 -58 19 -31 37 -53 42 -48 5 4 5 2 1 -5 -8 -14
73 -173 88 -173 5 0 6 3 3 7 -4 3 -2 12 4 19 14 17 2 77 -13 68 -7 -4 -8 -2
-4 4 7 12 -44 171 -74 232 -32 63 -121 204 -158 249 -63 78 -165 171 -240 222
-41 27 -77 49 -81 49 -4 0 -19 -12 -33 -27z m42 -34 c0 -6 -4 -7 -10 -4 -5 3
-10 11 -10 16 0 6 5 7 10 4 6 -3 10 -11 10 -16z m55 -19 c3 -6 -1 -7 -9 -4
-18 7 -21 14 -7 14 6 0 13 -4 16 -10z m26 -93 c-10 -9 -11 -8 -5 6 3 10 9 15
12 12 3 -3 0 -11 -7 -18z m95 -9 c4 -7 3 -9 -1 -5 -5 4 -15 -3 -22 -15 -7 -13
-12 -18 -13 -11 0 7 -6 10 -14 7 -8 -3 -17 0 -22 7 -4 8 -3 10 4 5 7 -4 22 0
34 8 27 19 25 19 34 4z m48 -97 c3 -5 -2 -15 -12 -22 -15 -12 -16 -12 -5 2 7
9 10 19 6 22 -3 4 -4 7 0 7 3 0 8 -4 11 -9z"/>
<path d="M6385 6678 c38 -89 83 -165 93 -159 12 7 -8 57 -37 87 -9 11 -18 22
-19 27 -4 16 -32 66 -42 72 -5 3 -3 -9 5 -27z"/>
<path d="M6510 7021 c0 -5 7 -14 15 -21 16 -14 18 -10 9 14 -6 17 -24 22 -24
7z"/>
<path d="M6571 6914 c0 -11 3 -14 6 -6 3 7 2 16 -1 19 -3 4 -6 -2 -5 -13z"/>
<path d="M6586 6858 c3 -5 10 -6 15 -3 13 9 11 12 -6 12 -8 0 -12 -4 -9 -9z"/>
<path d="M6610 6845 c-7 -9 -8 -15 -2 -15 5 0 12 7 16 15 3 8 4 15 2 15 -2 0
-9 -7 -16 -15z"/>
<path d="M6635 6796 c10 -14 19 -26 22 -26 7 0 -17 39 -28 46 -6 3 -3 -5 6
-20z"/>
<path d="M6675 6759 c-6 -8 -4 -10 5 -4 10 6 12 4 6 -11 -6 -15 -5 -17 5 -6 9
9 10 15 2 23 -8 8 -13 7 -18 -2z"/>
<path d="M4454 6266 c1 -7 10 -21 19 -30 9 -10 15 -22 11 -27 -5 -9 -24 -3
-24 7 0 3 5 2 12 -2 7 -5 8 -3 4 5 -5 7 -10 10 -13 7 -3 -3 -14 6 -25 19 -11
14 -25 25 -31 25 -7 -1 -3 -8 9 -18 11 -10 29 -30 39 -46 l19 -28 17 21 c10
13 20 17 24 11 3 -5 1 -10 -4 -10 -6 0 -11 -5 -11 -11 0 -6 7 -9 15 -6 8 4 17
2 20 -4 4 -5 3 -9 -2 -8 -21 4 -33 -2 -33 -17 0 -12 3 -14 13 -6 10 8 13 6 13
-8 0 -10 -5 -16 -11 -13 -5 4 -1 -3 9 -15 23 -27 27 -28 19 -4 -6 14 -4 15 9
5 8 -7 18 -10 21 -6 4 3 7 -1 7 -9 0 -9 -5 -18 -10 -20 -13 -4 40 -87 54 -85
6 1 10 -6 8 -15 -4 -23 13 -31 28 -14 8 11 9 20 0 36 -6 11 -8 25 -5 31 7 11
-74 122 -146 202 -44 48 -59 57 -55 33z m114 -142 c-4 -3 -12 5 -18 18 -12 22
-12 22 6 6 10 -10 15 -20 12 -24z m42 -70 c0 -8 -19 -13 -24 -6 -3 5 1 9 9 9
8 0 15 -2 15 -3z m43 -57 c3 -8 2 -20 -3 -26 -5 -9 -7 -4 -7 13 0 29 2 32 10
13z"/>
<path d="M4784 5744 c3 -8 6 -18 6 -20 0 -3 5 -2 10 1 15 9 12 22 -6 29 -12 5
-15 2 -10 -10z"/>
<path d="M6768 6213 c-24 -6 -23 -8 20 -54 51 -56 92 -128 92 -166 0 -41 -62
-102 -148 -145 -50 -25 -80 -32 -142 -36 -141 -8 -254 48 -339 168 -51 72 -81
86 -81 39 0 -44 39 -119 88 -167 53 -53 150 -100 237 -115 123 -21 264 22 349
107 74 74 90 132 60 220 -20 58 -110 156 -136 149z"/>
<path d="M6059 6053 c-13 -16 -12 -17 4 -4 9 7 17 15 17 17 0 8 -8 3 -21 -13z"/>
<path d="M3862 3032 c-9 -20 -9 -23 0 -14 20 20 32 13 13 -8 -10 -11 -14 -20
-8 -20 5 0 15 -11 21 -25 6 -14 15 -24 19 -23 5 2 10 -1 11 -7 2 -5 9 -16 15
-23 9 -11 13 -11 25 5 12 16 13 16 7 -8 -4 -16 -2 -30 4 -34 7 -3 11 -3 10 2
-4 21 2 34 12 27 7 -4 1 7 -12 25 -14 19 -32 31 -46 31 -13 0 -21 5 -19 13 1
6 1 9 -1 5 -11 -19 -23 -6 -13 12 9 16 7 26 -7 44 l-19 23 -12 -25z m30 -34
c-7 -7 -12 -8 -12 -2 0 6 3 14 7 17 3 4 9 5 12 2 2 -3 -1 -11 -7 -17z m68 -55
c-1 -18 -18 -35 -24 -24 -4 6 -1 11 6 11 9 0 9 3 -2 10 -13 8 -12 10 3 10 9 0
17 -3 17 -7z"/>
<path d="M9240 3311 c0 -5 9 -11 21 -14 16 -4 18 -3 8 9 -13 16 -29 19 -29 5z"/>
<path d="M1070 1065 c-7 -8 -16 -13 -20 -10 -5 3 -11 1 -14 -3 -10 -16 30 -7
48 11 10 9 13 17 8 17 -5 0 -15 -7 -22 -15z"/>
<path d="M947 1053 c-11 -10 -8 -20 6 -20 8 0 14 6 14 14 0 14 -10 17 -20 6z"/>
<path d="M1035 1020 c-3 -6 1 -7 9 -4 18 7 21 14 7 14 -6 0 -13 -4 -16 -10z"/>
<path d="M916 995 c-10 -15 -22 -23 -29 -19 -7 4 -9 3 -4 -1 10 -12 48 -14 41
-3 -3 5 0 16 7 24 6 8 10 17 7 20 -3 2 -13 -7 -22 -21z"/>
<path d="M985 990 c-10 -11 -16 -23 -13 -26 7 -6 48 27 48 38 0 14 -17 8 -35
-12z"/>
<path d="M8825 2030 c3 -5 8 -10 11 -10 2 0 4 5 4 10 0 6 -5 10 -11 10 -5 0
-7 -4 -4 -10z"/>
<path d="M8810 2010 c0 -5 5 -10 11 -10 5 0 7 5 4 10 -3 6 -8 10 -11 10 -2 0
-4 -4 -4 -10z"/>
<path d="M8325 1340 c-3 -6 1 -7 9 -4 18 7 21 14 7 14 -6 0 -13 -4 -16 -10z"/>
<path d="M8260 1332 c0 -5 7 -15 15 -22 8 -7 15 -8 15 -2 0 5 -7 15 -15 22 -8
7 -15 8 -15 2z"/>
<path d="M8304 1309 c-3 -6 1 -18 10 -27 10 -11 16 -12 16 -4 0 7 -5 12 -11
12 -6 0 -9 7 -5 15 6 17 0 20 -10 4z"/>
<path d="M8346 1306 c10 -8 21 -12 24 -10 5 6 -21 24 -34 24 -6 0 -1 -6 10
-14z"/>
<path d="M8367 1223 c-4 -3 -7 -11 -7 -17 0 -6 5 -5 12 2 6 6 9 14 7 17 -3 3
-9 2 -12 -2z"/>
</g>
</svg>
